<?xml version="1.0" encoding="UTF-8" standalone="no"?>
<svg
   xmlns:dc="http://purl.org/dc/elements/1.1/"
   xmlns:cc="http://creativecommons.org/ns#"
   xmlns:rdf="http://www.w3.org/1999/02/22-rdf-syntax-ns#"
   xmlns:svg="http://www.w3.org/2000/svg"
   xmlns="http://www.w3.org/2000/svg"
   viewBox="0 0 512 512"
   height="512"
   width="512"
   id="svg2"
   version="1.1">
  <metadata
     id="metadata8">
    <rdf:RDF>
      <cc:Work
         rdf:about="">
        <dc:format>image/svg+xml</dc:format>
        <dc:type
           rdf:resource="http://purl.org/dc/dcmitype/StillImage" />
        <dc:title></dc:title>
      </cc:Work>
    </rdf:RDF>
  </metadata>
  <defs
     id="defs6" />
  <path
     id="rect817"
     d="m 158.56251,143.93682 c -3.27079,-7.9e-4 -6.75722,0.20801 -9.375,3.1836 -9.3864,12.8249 -2.43182,73.43806 -0.0176,92.19726 -9.75521,11.71086 -15.2869,28.34238 -15.46289,42.72071 l -38.050785,-0.85743 c -16.954377,-0.64091 -19.318175,24.49858 -0.767578,24.91407 l 44.298823,0.99219 c 0.71906,1.52679 1.49996,3.04104 2.3379,4.5371 l -43.394535,15.14454 c -15.722006,5.11476 -8.813618,28.74691 7.953125,23.62695 l 51.37891,-17.83399 c 23.00774,22.25727 59.59697,35.42549 98.5371,35.4629 39.11176,0.15838 -39.14699,-0.23916 0,0 38.94013,-0.0374 75.52936,-13.20563 98.53711,-35.4629 l 51.37894,17.83399 c 16.76674,5.11996 23.67514,-18.51219 7.95312,-23.62695 l -43.39453,-15.14454 c 0.83793,-1.49606 1.61883,-3.01031 2.33789,-4.5371 l 44.29883,-0.99219 c 18.5506,-0.41549 16.1868,-25.55498 -0.76758,-24.91407 l -38.05078,0.85743 c -0.17599,-14.37833 -5.70768,-31.00985 -15.46289,-42.72071 2.41425,-18.7592 9.36882,-79.37236 -0.0176,-92.19726 -2.61778,-2.97559 -6.10421,-3.18439 -9.375,-3.1836 -11.68138,0.003 -25.67683,11.23943 -36.64648,21.97461 l -29.11719,31.82618 c -11.29165,-2.12181 -20.76008,-3.33105 -31.67383,-3.32032 -10.84715,0.32611 -22.44316,1.65589 -31.67382,3.32032 l -29.11719,-31.82618 c -10.96965,-10.73518 -24.96511,-21.97178 -36.64649,-21.97461 z m 43.36133,113.25196 c 9.47498,0.007 17.21278,7.57637 17.43164,17.04883 -0.19796,9.48777 -7.9418,17.07793 -17.43164,17.08593 -9.47355,-0.004 -17.21337,-7.56621 -17.4375,-17.03711 0.19277,-9.49388 7.94166,-17.09265 17.4375,-17.09765 z m 108.15235,0 c 9.49584,0.005 17.24473,7.60377 17.4375,17.09765 -0.22413,9.4709 -7.96395,17.03311 -17.4375,17.03711 -9.48984,-0.008 -17.23368,-7.59816 -17.43164,-17.08593 0.21886,-9.47246 7.95666,-17.04183 17.43164,-17.04883 z"
     style="display:inline;opacity:1;fill:#ffffff;fill-opacity:1;fill-rule:nonzero;stroke-width:1.06564212;paint-order:fill markers stroke" />
</svg>
